<?xml version="1.0" standalone="no"?>
<!DOCTYPE svg PUBLIC "-//W3C//DTD SVG 20010904//EN"
 "http://www.w3.org/TR/2001/REC-SVG-20010904/DTD/svg10.dtd">
<svg version="1.0" xmlns="http://www.w3.org/2000/svg"
 width="64pt" height="64pt" viewBox="0 0 512.000000 512.000000"
 preserveAspectRatio="xMidYMid meet">

<g transform="translate(0.000000,512.000000) scale(0.100000,-0.100000)"
fill="White" stroke="SlateGray" stroke-width="50pt">
<path d="M2515 4912 c-74 -5 -136 -34 -409 -187 -149 -84 -545 -307 -881 -495
-335 -188 -625 -353 -642 -367 -79 -58 -131 -133 -157 -224 -15 -50 -16 -162
-14 -1105 l3 -1049 32 -65 c66 -135 31 -113 1393 -876 80 -44 228 -127 329
-184 246 -138 280 -151 390 -151 104 0 147 14 305 102 748 418 1649 928 1681
952 57 43 112 113 138 177 l22 55 0 1065 0 1065 -22 55 c-26 64 -81 134 -138
177 -33 25 -549 317 -1658 939 -189 106 -251 125 -372 116z m278 -1147 c263
-54 482 -176 661 -366 42 -45 75 -87 73 -93 -2 -6 -28 -25 -58 -42 -30 -17
-125 -72 -213 -122 -87 -51 -160 -92 -163 -92 -2 0 -34 25 -71 56 -76 63 -199
127 -287 149 -291 74 -596 -43 -765 -292 -92 -136 -124 -240 -124 -403 -1
-130 19 -212 79 -330 91 -177 265 -315 465 -367 80 -21 253 -23 330 -4 83 20
228 93 294 147 32 27 64 53 70 57 7 5 73 -27 171 -84 88 -51 184 -106 214
-123 30 -17 56 -36 58 -42 2 -6 -26 -42 -61 -81 -176 -189 -387 -312 -640
-371 -153 -35 -372 -36 -521 -3 -476 107 -832 460 -943 935 -37 160 -37 372 0
532 121 515 521 879 1052 954 86 12 286 4 379 -15z m997 -795 l0 -100 105 0
105 0 0 100 0 100 100 0 100 0 0 -100 0 -100 100 0 100 0 0 -105 0 -105 -100
0 -100 0 0 -100 0 -100 100 0 100 0 0 -105 0 -105 -100 0 -100 0 0 -100 0
-100 -100 0 -100 0 0 100 0 100 -105 0 -105 0 0 -100 0 -100 -100 0 -100 0 0
100 0 100 -105 0 -105 0 0 105 0 105 105 0 105 0 0 100 0 100 -105 0 -105 0 0
105 0 105 105 0 105 0 0 100 0 100 100 0 100 0 0 -100z"/>
<path d="M3790 2560 l0 -100 105 0 105 0 0 100 0 100 -105 0 -105 0 0 -100z"/>
</g>
</svg>
