<?xml version="1.0" standalone="no"?>
<!DOCTYPE svg PUBLIC "-//W3C//DTD SVG 20010904//EN"
 "http://www.w3.org/TR/2001/REC-SVG-20010904/DTD/svg10.dtd">
<svg version="1.0" xmlns="http://www.w3.org/2000/svg"
 width="64pt" height="64pt" viewBox="0 0 512.000000 512.000000"
 preserveAspectRatio="xMidYMid meet">

<g transform="translate(0.000000,512.000000) scale(0.100000,-0.100000)"
fill="White" stroke="SlateGray" stroke-width="50pt">
<path d="M1102 3458 c-5 -7 -83 -197 -172 -423 -89 -225 -168 -421 -176 -433
-17 -27 -71 -52 -109 -52 -20 0 -25 -5 -25 -25 l0 -25 150 0 150 0 0 25 c0 20
-5 25 -24 25 -29 0 -76 36 -76 58 0 9 17 58 37 110 l37 92 194 -2 194 -3 39
-100 c54 -138 52 -144 -26 -155 -32 -4 -40 -9 -40 -25 0 -19 8 -20 193 -23
l192 -2 0 25 c0 23 -3 25 -49 25 -32 0 -56 6 -70 18 -13 10 -85 182 -193 457
-145 369 -177 440 -194 443 -11 2 -26 -3 -32 -10z m75 -386 l82 -207 -166 -3
c-91 -1 -168 0 -170 2 -3 3 32 99 78 215 45 116 85 208 88 205 3 -3 43 -99 88
-212z"/>
<path d="M140 3408 c0 -27 2 -28 48 -28 61 -1 123 -15 133 -32 11 -16 12
-1129 1 -1145 -13 -20 -61 -33 -123 -33 -59 0 -59 0 -59 -30 l0 -30 505 0
c493 0 505 0 505 19 0 26 38 394 46 444 5 34 4 37 -19 37 -23 0 -26 -5 -32
-52 -30 -229 -101 -332 -257 -374 -63 -16 -329 -19 -359 -4 -18 10 -19 27 -19
585 l0 575 24 16 c16 10 58 18 120 21 92 6 96 7 96 29 l0 23 -305 3 -305 3 0
-27z"/>
<path d="M3650 3413 c0 -30 0 -30 72 -36 45 -4 82 -13 98 -24 14 -10 110 -146
213 -301 l189 -283 -143 -212 c-236 -351 -243 -358 -382 -381 -66 -11 -72 -14
-72 -37 0 -21 5 -24 43 -27 l43 -3 -7 -37 c-3 -20 -18 -73 -32 -117 -22 -66
-35 -89 -77 -130 -78 -79 -114 -88 -387 -93 -220 -4 -227 -3 -247 17 -21 21
-21 28 -19 299 l3 277 80 3 c228 9 281 -23 300 -180 5 -39 10 -48 26 -48 18 0
19 9 19 261 0 243 -1 260 -17 257 -13 -2 -20 -17 -26 -53 -17 -105 -29 -128
-77 -152 -39 -20 -59 -23 -177 -23 l-133 0 0 254 c0 223 2 257 16 271 15 15
44 16 253 13 236 -3 236 -3 294 -31 40 -20 66 -42 87 -73 30 -42 70 -170 70
-223 0 -35 14 -54 36 -49 12 2 18 11 17 23 -15 125 -44 357 -48 383 l-6 32
-444 0 c-244 0 -446 4 -449 8 -2 4 -12 101 -22 215 l-18 207 -593 0 c-326 0
-593 -3 -593 -7 0 -5 -7 -80 -15 -168 -20 -224 -20 -255 4 -255 20 0 22 6 37
130 13 108 55 185 121 219 33 17 211 33 281 26 46 -5 65 -11 72 -25 14 -26 14
-1105 0 -1130 -15 -27 -71 -40 -177 -40 l-93 0 0 -27 0 -28 365 0 365 0 0 26
0 27 -113 3 c-87 3 -119 8 -140 22 l-27 17 0 564 c0 513 1 565 17 577 12 10
48 14 137 13 181 -2 246 -26 287 -107 22 -43 48 -165 49 -229 l0 -38 -70 0
-70 0 0 -30 0 -30 71 0 c68 0 106 -11 121 -34 4 -6 8 -259 8 -562 0 -650 11
-594 -118 -602 l-82 -5 0 -28 0 -29 560 0 c308 0 560 3 560 8 0 4 16 99 35
212 19 113 35 208 35 212 0 4 73 9 163 10 l162 3 0 23 c0 19 -9 27 -39 37 -22
8 -47 22 -57 32 -41 43 -38 51 113 274 79 117 148 214 154 216 6 2 82 -103
168 -234 l158 -237 -26 -23 c-15 -13 -45 -26 -67 -29 -34 -6 -39 -10 -39 -33
l0 -26 265 0 265 -1 0 28 c0 27 -1 28 -57 28 -111 0 -113 2 -346 355 -114 174
-210 322 -213 329 -5 13 249 390 299 444 35 36 107 66 185 77 50 7 53 9 50 34
l-3 26 -225 0 -225 0 -3 -26 c-3 -22 2 -27 37 -38 43 -12 81 -52 81 -83 0 -10
-53 -97 -117 -193 -91 -136 -120 -172 -129 -163 -22 25 -254 377 -254 387 0
19 32 41 76 52 37 10 44 15 44 35 l0 24 -242 0 c-134 0 -253 3 -265 6 -20 6
-23 3 -23 -23z"/>
</g>
</svg>
