<?xml version="1.0" standalone="no"?>
<!DOCTYPE svg PUBLIC "-//W3C//DTD SVG 20010904//EN"
 "http://www.w3.org/TR/2001/REC-SVG-20010904/DTD/svg10.dtd">
<svg version="1.0" xmlns="http://www.w3.org/2000/svg"
 width="64pt" height="64pt" viewBox="0 0 512.000000 512.000000"
 preserveAspectRatio="xMidYMid meet">

<g transform="translate(0.000000,512.000000) scale(0.100000,-0.100000)"
fill="White" stroke="SlateGray" stroke-width="50pt">
<path d="M3434 4861 c-72 -44 -150 -185 -274 -496 -72 -179 -167 -407 -305
-730 -169 -394 -374 -782 -636 -1205 -165 -266 -398 -534 -666 -769 -40 -35
-73 -67 -73 -70 0 -4 15 -15 34 -25 62 -33 180 -160 259 -278 43 -64 120 -198
170 -299 86 -171 120 -247 272 -612 42 -100 62 -137 75 -137 30 0 223 103 309
165 131 95 325 288 581 580 255 291 422 465 510 532 248 187 507 239 738 147
158 -64 266 -141 468 -336 68 -67 127 -119 129 -116 3 3 -27 81 -66 174 -177
421 -307 764 -489 1294 -479 1389 -691 1925 -829 2097 -81 100 -141 124 -207
84z"/>
<path d="M2710 3857 c-69 -91 -249 -272 -315 -317 -27 -19 -123 -64 -212 -101
-92 -37 -192 -87 -231 -113 -98 -66 -320 -296 -360 -372 -9 -18 -7 -25 11 -41
52 -48 457 -343 470 -343 14 0 100 138 242 385 74 128 246 474 319 638 74 166
139 328 134 332 -2 3 -28 -28 -58 -68z"/>
<path d="M1389 2790 c-10 -6 -95 -42 -190 -81 -96 -39 -239 -98 -319 -131 -80
-33 -226 -93 -325 -133 -99 -40 -206 -85 -239 -99 -32 -14 -62 -26 -66 -26 -4
0 -42 -16 -85 -35 -92 -42 -95 -36 54 -140 58 -41 160 -114 227 -162 496 -361
599 -433 617 -433 20 0 213 129 312 209 201 161 377 342 530 546 36 47 63 91
59 96 -13 22 -526 399 -542 399 -9 0 -24 -5 -33 -10z"/>
</g>
</svg>
