<?xml version="1.0" standalone="no"?>
<!DOCTYPE svg PUBLIC "-//W3C//DTD SVG 20010904//EN"
 "http://www.w3.org/TR/2001/REC-SVG-20010904/DTD/svg10.dtd">
<svg version="1.0" xmlns="http://www.w3.org/2000/svg"
 width="64pt" height="64pt" viewBox="0 0 512.000000 512.000000"
 preserveAspectRatio="xMidYMid meet">

<g transform="translate(0.000000,512.000000) scale(0.100000,-0.100000)"
fill="White" stroke="SlateGray" stroke-width="50pt">
<path d="M887 4874 c-262 -47 -490 -234 -595 -486 -65 -156 -63 -86 -60 -1869
4 -1820 -4 -1653 83 -1834 79 -163 208 -292 370 -370 181 -87 18 -80 1875 -80
1858 0 1693 -7 1875 80 163 78 292 208 370 370 87 181 80 18 80 1875 0 1857 7
1694 -80 1875 -78 162 -207 291 -370 370 -179 87 -4 79 -1840 81 -1375 2
-1642 0 -1708 -12z m503 -1073 c183 -38 352 -102 493 -187 282 -170 511 -428
633 -714 22 -49 41 -90 44 -90 3 0 22 41 44 90 144 337 426 624 769 785 190
89 438 145 638 145 l92 0 -6 -142 c-12 -279 -95 -541 -245 -773 -107 -166
-278 -341 -443 -452 -119 -81 -243 -240 -298 -381 -52 -135 -61 -214 -61 -518
l0 -274 -490 0 -490 0 0 274 c0 208 -4 294 -16 357 -44 232 -169 419 -375 564
-93 65 -232 195 -309 290 -214 261 -333 575 -347 914 l-6 144 139 -6 c77 -3
181 -15 234 -26z"/>
</g>
</svg>
