<?xml version="1.0" standalone="no"?>
<!DOCTYPE svg PUBLIC "-//W3C//DTD SVG 20010904//EN"
 "http://www.w3.org/TR/2001/REC-SVG-20010904/DTD/svg10.dtd">
<svg version="1.0" xmlns="http://www.w3.org/2000/svg"
 width="64pt" height="64pt" viewBox="0 0 512.000000 512.000000"
 preserveAspectRatio="xMidYMid meet">

<g transform="translate(0.000000,512.000000) scale(0.100000,-0.100000)"
fill="White" stroke="SlateGray" stroke-width="50pt">
<path d="M1358 4029 c-156 -18 -352 -81 -485 -155 -275 -153 -512 -447 -618
-769 -43 -131 -74 -308 -81 -460 -22 -469 131 -891 427 -1185 149 -148 298
-241 492 -305 203 -67 163 -65 1472 -65 1310 0 1261 -2 1465 66 461 154 784
544 892 1076 20 99 23 141 22 338 0 194 -3 240 -23 330 -68 320 -201 570 -409
772 -216 210 -466 327 -762 358 -118 12 -2283 11 -2392 -1z m2472 -503 c128
-37 255 -108 345 -193 143 -135 246 -354 280 -593 18 -131 19 -203 4 -325 -53
-430 -282 -724 -639 -818 l-85 -22 -1175 0 -1175 0 -83 22 c-245 65 -427 220
-539 458 -106 223 -135 515 -79 781 67 317 259 560 522 660 142 54 108 53
1379 50 1117 -1 1183 -2 1245 -20z"/>
</g>
</svg>
