<?xml version="1.0" standalone="no"?>
<!DOCTYPE svg PUBLIC "-//W3C//DTD SVG 20010904//EN"
 "http://www.w3.org/TR/2001/REC-SVG-20010904/DTD/svg10.dtd">
<svg version="1.0" xmlns="http://www.w3.org/2000/svg"
 width="64pt" height="64pt" viewBox="0 0 512.000000 512.000000"
 preserveAspectRatio="xMidYMid meet">

<g transform="translate(0.000000,512.000000) scale(0.100000,-0.100000)"
fill="White" stroke="SlateGray" stroke-width="50pt">
<path d="M3485 5013 c-60 -8 -114 -18 -118 -23 -5 -4 35 -31 88 -59 54 -28
134 -77 178 -108 97 -69 279 -242 353 -335 122 -152 251 -378 310 -543 26 -73
29 -91 27 -200 -1 -66 -6 -149 -12 -185 -43 -278 -46 -325 -27 -494 33 -291
37 -350 30 -441 -8 -114 -35 -219 -81 -317 -34 -73 -38 -115 -11 -106 46 16
362 635 454 889 206 572 290 1021 239 1285 -22 114 -47 156 -160 269 -271 268
-584 387 -1014 384 -80 -1 -195 -8 -256 -16z"/>
<path d="M2440 4951 c-406 -87 -680 -416 -795 -956 -16 -76 -39 -254 -33 -260
2 -2 47 14 99 36 156 68 263 91 399 86 147 -5 212 -28 285 -101 86 -86 113
-162 155 -436 25 -159 27 -420 5 -541 -19 -101 -55 -216 -102 -324 -48 -108
-129 -323 -137 -363 l-8 -32 44 0 c104 0 205 -67 257 -172 l31 -61 0 -397 c0
-419 18 -790 46 -939 30 -162 129 -313 243 -368 48 -24 71 -28 161 -31 87 -3
122 1 209 22 247 61 358 155 426 358 31 94 77 393 125 803 11 99 25 213 30
253 6 40 13 125 16 190 11 187 58 277 169 323 30 12 55 26 55 29 0 7 -37 59
-50 70 -44 39 -129 191 -349 625 -187 367 -254 634 -206 818 55 211 217 307
521 307 85 0 114 3 114 13 0 24 -77 185 -131 273 -265 440 -648 709 -1109 779
-133 21 -363 18 -470 -4z"/>
<path d="M895 4940 c-216 -39 -372 -124 -490 -267 -170 -207 -249 -582 -200
-954 25 -188 99 -551 159 -779 153 -581 299 -958 465 -1207 163 -244 299 -275
450 -105 32 37 123 141 202 231 79 90 162 184 183 208 l39 44 -45 47 c-72 76
-106 125 -147 214 -75 162 -93 297 -67 509 13 108 16 215 15 510 -2 411 4 486
60 715 64 258 149 445 282 614 23 30 53 65 66 77 13 12 23 24 23 27 0 8 -154
53 -275 80 -256 58 -528 71 -720 36z"/>
<path d="M3853 3726 c-62 -15 -122 -53 -156 -98 -86 -114 -53 -346 95 -673 51
-113 298 -575 307 -575 15 0 50 129 62 219 10 84 8 123 -17 361 l-27 266 23
179 c31 240 35 315 18 326 -20 13 -246 9 -305 -5z m141 -76 c71 -26 -13 -140
-103 -140 -40 0 -75 14 -100 41 -24 26 -26 38 -8 62 27 38 152 60 211 37z"/>
<path d="M2050 3713 c-113 -11 -297 -77 -398 -142 l-50 -32 6 -217 c3 -147 0
-267 -9 -368 -29 -306 -14 -420 71 -565 36 -60 114 -145 182 -199 58 -45 208
-99 278 -100 23 0 28 9 64 116 22 64 61 166 89 227 125 284 154 437 136 711
-8 124 -11 149 -46 324 -23 118 -61 179 -133 214 -55 26 -125 38 -190 31z
m167 -108 c48 -20 73 -43 73 -66 0 -32 -52 -78 -101 -90 -41 -11 -51 -10 -92
10 -76 37 -110 114 -65 145 29 21 137 21 185 1z"/>
<path d="M4170 1921 c-84 -26 -113 -63 -125 -164 l-6 -57 37 -16 c122 -51 471
-11 639 73 72 36 175 106 175 119 0 7 -25 6 -77 -4 -46 -9 -149 -15 -253 -16
-185 -1 -239 8 -317 54 -37 22 -37 22 -73 11z"/>
<path d="M2281 1852 c-31 -32 -82 -88 -114 -125 -70 -81 -135 -117 -264 -147
-228 -54 -229 -54 -198 -80 23 -19 152 -50 240 -56 101 -8 221 14 314 59 47
22 89 54 149 114 79 79 82 84 82 128 0 58 -31 120 -73 145 -52 32 -74 26 -136
-38z"/>
</g>
</svg>
