<?xml version="1.0" standalone="no"?>
<!DOCTYPE svg PUBLIC "-//W3C//DTD SVG 20010904//EN"
 "http://www.w3.org/TR/2001/REC-SVG-20010904/DTD/svg10.dtd">
<svg version="1.0" xmlns="http://www.w3.org/2000/svg"
 width="64pt" height="64pt" viewBox="0 0 512.000000 512.000000"
 preserveAspectRatio="xMidYMid meet">

<g transform="translate(0.000000,512.000000) scale(0.100000,-0.100000)"
fill="White" stroke="SlateGray" stroke-width="50pt">
<path d="M3365 4978 c-44 -5 -132 -21 -195 -36 -130 -30 -169 -32 -360 -13
-260 26 -496 -11 -685 -106 -70 -36 -70 -36 -115 -20 -283 98 -703 144 -951
102 -188 -31 -328 -87 -453 -179 -274 -203 -406 -522 -406 -974 1 -278 80
-690 234 -1214 113 -387 260 -718 401 -906 78 -105 122 -146 216 -204 140 -85
332 -74 465 27 l31 24 29 -30 c81 -85 273 -142 474 -141 119 0 155 6 296 47
20 6 21 3 28 -190 10 -300 37 -470 100 -638 47 -125 96 -201 176 -274 44 -41
158 -97 229 -113 115 -27 354 9 513 76 349 147 500 471 533 1144 l7 135 112 1
c269 3 487 73 679 218 126 95 187 189 187 291 0 98 -42 164 -135 213 -60 31
-160 35 -270 10 -81 -19 -195 -33 -195 -24 0 3 34 69 75 145 238 437 404 899
477 1327 32 191 32 466 -1 581 -28 99 -74 178 -160 273 -217 243 -545 406
-901 450 -99 12 -321 11 -435 -2z m380 -128 c327 -31 597 -154 814 -370 129
-128 167 -207 180 -375 25 -307 -62 -719 -254 -1205 -56 -143 -226 -496 -265
-550 -11 -15 -20 -30 -20 -33 0 -3 -27 -49 -60 -102 -45 -72 -58 -100 -50
-110 32 -39 225 -46 396 -15 140 25 200 26 241 0 37 -22 48 -54 38 -108 -15
-82 -204 -225 -373 -281 -147 -50 -366 -73 -486 -52 -38 7 -70 10 -72 8 -3 -2
-18 -114 -34 -248 -40 -319 -67 -515 -87 -614 -59 -303 -225 -457 -558 -520
-207 -39 -382 11 -495 144 -52 60 -115 189 -134 271 -25 109 -37 280 -43 603
-3 169 -8 307 -11 307 -3 0 -20 -11 -37 -24 -46 -35 -140 -81 -210 -103 -81
-24 -292 -24 -384 1 -138 37 -221 103 -221 175 0 73 69 124 210 155 136 31
207 56 237 84 31 28 103 115 103 124 0 3 -24 8 -52 12 -53 6 -163 37 -197 56
-16 8 -32 -5 -109 -88 -49 -53 -144 -161 -211 -239 -66 -78 -136 -153 -154
-167 -98 -75 -209 -89 -311 -41 -182 86 -357 383 -522 884 -101 305 -181 623
-246 976 -29 155 -32 188 -32 365 1 172 4 209 27 312 67 305 201 489 441 610
128 65 242 89 436 95 252 8 469 -25 745 -113 l88 -28 70 38 c128 69 236 100
396 115 112 11 285 0 398 -23 57 -12 68 -12 142 10 215 62 447 84 666 64z"/>
<path d="M3505 4724 c-16 -2 -71 -9 -121 -15 -51 -5 -105 -14 -120 -18 -28 -8
-28 -9 36 -41 282 -143 525 -393 685 -705 80 -156 100 -223 100 -330 0 -49
-11 -176 -25 -281 l-24 -192 20 -178 c35 -322 22 -480 -50 -629 -25 -50 -32
-73 -24 -82 6 -7 14 -11 18 -8 12 8 113 182 188 325 280 535 457 1181 421
1534 -13 123 -38 173 -141 277 -178 180 -379 282 -643 324 -97 15 -271 26
-320 19z"/>
<path d="M2480 4664 c-346 -67 -568 -282 -696 -671 -34 -105 -74 -305 -74
-373 l0 -38 89 39 c315 135 562 97 661 -104 49 -100 90 -354 90 -558 0 -172
-47 -383 -115 -519 -30 -60 -115 -285 -115 -305 0 -11 11 -15 39 -15 93 0 191
-68 229 -159 18 -43 20 -80 25 -506 7 -601 21 -729 94 -867 44 -84 114 -150
186 -175 148 -51 431 16 555 131 89 83 126 181 161 431 43 297 92 705 100 833
8 113 13 142 36 188 27 56 86 106 138 120 15 3 27 8 27 11 0 2 -28 42 -62 87
-98 132 -372 667 -428 836 -17 52 -38 141 -47 198 -15 94 -15 110 0 184 39
198 172 286 437 293 69 1 126 3 127 4 1 0 -9 27 -23 59 -139 317 -356 565
-629 720 -194 109 -358 152 -605 157 -96 2 -186 1 -200 -1z"/>
<path d="M1083 4646 c-213 -41 -368 -136 -471 -290 -159 -238 -186 -607 -81
-1106 201 -944 496 -1600 721 -1600 81 0 85 3 349 305 63 71 131 147 151 169
l37 40 -43 46 c-160 171 -225 395 -184 630 6 39 11 216 12 445 2 314 5 396 19
475 58 311 163 559 306 721 29 33 51 63 48 66 -11 10 -213 63 -322 84 -142 27
-436 35 -542 15z"/>
<path d="M3750 3593 c-176 -32 -234 -79 -255 -209 -9 -56 17 -199 55 -310 35
-99 137 -313 230 -478 33 -61 69 -129 80 -153 10 -24 23 -43 28 -43 15 0 51
138 58 220 4 50 -1 144 -16 285 -24 223 -23 304 5 485 16 104 19 186 8 193
-13 7 -166 16 -193 10z m54 -79 c36 -14 9 -82 -44 -109 -41 -21 -82 -19 -121
8 -73 49 -22 107 93 107 31 0 63 -3 72 -6z"/>
<path d="M2040 3563 c-80 -14 -204 -62 -282 -109 l-57 -35 6 -192 c3 -117 1
-237 -6 -307 -7 -63 -14 -149 -17 -190 -21 -280 187 -545 451 -576 43 -5 55
-4 55 7 1 16 90 251 148 390 64 153 77 226 76 429 -1 195 -28 391 -65 467 -26
53 -77 99 -126 112 -37 11 -133 13 -183 4z m210 -95 c54 -27 63 -58 29 -94
-48 -51 -130 -51 -185 1 -42 39 -47 86 -11 103 39 19 119 14 167 -10z"/>
<path d="M3937 1996 c-69 -25 -97 -70 -97 -158 0 -33 3 -38 38 -49 82 -27 322
-13 447 27 71 23 194 88 235 125 l35 30 -40 -6 c-119 -20 -171 -25 -275 -25
-126 0 -217 17 -262 50 -32 23 -31 23 -81 6z"/>
<path d="M2325 1976 c-11 -8 -49 -50 -85 -95 -100 -125 -134 -145 -337 -195
-68 -17 -125 -35 -126 -41 -3 -19 132 -55 226 -61 171 -11 299 38 412 158 55
58 65 74 65 104 0 97 -93 174 -155 130z"/>
</g>
</svg>
