<?xml version="1.0" standalone="no"?>
<!DOCTYPE svg PUBLIC "-//W3C//DTD SVG 20010904//EN"
 "http://www.w3.org/TR/2001/REC-SVG-20010904/DTD/svg10.dtd">
<svg version="1.0" xmlns="http://www.w3.org/2000/svg"
 width="64pt" height="64pt" viewBox="0 0 512.000000 512.000000"
 preserveAspectRatio="xMidYMid meet">

<g transform="translate(0.000000,512.000000) scale(0.100000,-0.100000)"
fill="White" stroke="SlateGray" stroke-width="50pt">
<path d="M1975 4931 c-441 -159 -732 -301 -847 -411 -48 -46 -59 -77 -39 -109
5 -7 114 -120 243 -250 129 -130 254 -265 278 -300 126 -188 180 -372 180
-616 0 -308 -120 -597 -390 -935 -113 -141 -407 -433 -615 -612 -94 -80 -196
-173 -227 -206 -71 -77 -164 -216 -190 -284 -83 -220 28 -438 326 -639 227
-153 545 -270 936 -343 294 -55 639 -96 811 -96 l109 0 76 151 c255 511 369
872 431 1374 24 197 24 661 -1 829 -9 65 -13 122 -9 127 15 14 543 161 808
224 375 89 627 142 813 172 61 9 112 20 112 24 0 25 -182 253 -279 350 -349
347 -810 542 -1676 709 -27 5 -104 17 -169 27 -89 13 -124 22 -137 36 -10 11
-67 117 -127 236 -110 217 -182 384 -221 518 -12 40 -25 74 -29 77 -4 2 -79
-22 -167 -53z m159 -3 c29 -165 43 -227 68 -307 16 -51 27 -95 25 -98 -3 -2
-24 1 -48 7 -54 15 -261 52 -503 90 -105 17 -192 32 -194 35 -11 10 601 292
640 295 4 0 9 -10 12 -22z m-394 -388 c167 -34 397 -70 445 -70 72 0 69 -11
-17 -58 -46 -24 -129 -71 -185 -103 -153 -89 -138 -93 -351 110 -98 93 -183
175 -190 183 -9 11 8 9 71 -9 45 -13 147 -37 227 -53z m-226 -95 c64 -79 116
-147 116 -151 0 -13 -231 31 -352 68 -73 21 -78 29 -54 77 18 34 142 151 160
151 8 0 66 -65 130 -145z m830 -159 l66 -128 -47 6 c-95 14 -357 57 -360 60
-1 1 39 30 90 64 50 34 110 77 132 96 22 20 43 34 46 33 4 -1 36 -60 73 -131z
m-902 -36 c78 -22 145 -44 149 -48 11 -12 119 -358 119 -381 0 -3 -30 40 -67
94 -65 95 -232 276 -318 344 -22 17 -36 31 -32 31 3 0 71 -18 149 -40z m388
-90 c85 -18 204 -40 263 -50 59 -9 110 -20 114 -23 3 -4 -9 -14 -27 -24 -90
-50 -243 -158 -308 -218 -40 -37 -75 -66 -77 -64 -2 2 -18 49 -35 103 -26 81
-62 174 -117 305 -4 9 -1 12 13 8 10 -4 89 -20 174 -37z m468 -141 c37 -123
59 -429 31 -429 -6 0 -86 22 -178 49 -91 28 -192 57 -223 66 -32 9 -58 20 -58
24 0 28 381 346 404 338 6 -2 17 -23 24 -48z m232 16 c166 -28 490 -92 497
-98 2 -2 -83 -47 -189 -100 -106 -53 -242 -127 -301 -166 -59 -39 -110 -71
-113 -71 -2 0 -4 17 -4 38 -1 113 -38 293 -86 416 -6 16 -4 18 17 13 13 -3 94
-17 179 -32z m577 -170 c-14 -98 -122 -358 -200 -483 l-27 -42 -123 63 c-67
36 -152 77 -190 93 -37 16 -66 33 -64 39 7 24 569 375 601 375 5 0 6 -20 3
-45z m263 -15 c199 -62 384 -129 488 -176 l77 -35 -190 -49 c-233 -59 -353
-96 -558 -172 -168 -61 -182 -65 -174 -45 81 188 132 353 143 460 6 60 9 67
28 67 12 0 96 -23 186 -50z m-1430 -275 c131 -35 310 -95 310 -104 0 -4 -37
-39 -82 -77 -46 -38 -124 -107 -173 -154 -50 -47 -103 -96 -119 -110 l-29 -25
6 95 c5 95 -5 291 -18 363 -4 20 -3 37 1 37 5 0 52 -11 104 -25z m2026 -13
c-24 -47 -116 -169 -315 -422 -107 -135 -203 -257 -215 -272 -12 -15 -25 -27
-31 -27 -5 0 -25 22 -44 50 -57 84 -172 210 -259 283 -46 38 -79 73 -75 77 42
39 859 335 936 338 16 1 16 -1 3 -27z m132 -9 c172 -98 341 -229 500 -386
l113 -112 -53 -7 c-29 -4 -123 -14 -208 -23 -208 -23 -519 -75 -735 -125 -98
-22 -185 -40 -194 -40 -9 0 30 46 90 108 187 190 274 306 374 503 31 60 58
109 61 109 3 0 26 -12 52 -27z m-1520 -223 c89 -43 162 -84 162 -89 0 -6 -57
-39 -127 -75 -71 -36 -185 -99 -255 -140 -71 -41 -128 -72 -128 -69 0 2 18 42
40 87 39 79 110 276 110 302 0 21 19 64 28 64 4 0 81 -36 170 -80z m-308 -72
c-27 -82 -142 -333 -179 -387 -7 -12 -20 -5 -62 33 -28 25 -76 61 -105 79 -30
17 -54 35 -54 38 0 10 157 150 300 269 96 80 126 100 128 86 2 -9 -11 -62 -28
-118z m757 -196 c129 -93 292 -230 293 -247 0 -6 -62 -28 -137 -49 -198 -56
-555 -169 -711 -227 -74 -27 -139 -49 -146 -49 -7 0 60 73 149 163 159 159
289 312 369 434 23 35 46 63 51 63 6 0 65 -40 132 -88z m-312 21 c-95 -149
-478 -628 -494 -619 -4 3 -11 39 -14 80 -4 52 -16 101 -40 161 l-34 86 71 40
c39 23 98 57 131 77 72 44 376 201 389 202 4 0 0 -12 -9 -27z m-812 -250 c37
-24 65 -48 62 -53 -3 -5 -59 -49 -123 -96 -64 -48 -135 -102 -156 -121 -22
-18 -43 -33 -48 -33 -4 0 8 25 28 56 41 64 93 174 118 251 20 60 19 60 119 -4z
m200 -211 c39 -73 72 -182 59 -192 -4 -4 -68 -31 -142 -60 -193 -75 -355 -143
-446 -187 -98 -47 -134 -63 -134 -60 0 2 55 46 122 98 131 101 365 322 438
413 25 31 50 56 56 56 6 0 28 -31 47 -68z m-240 -49 c-131 -146 -350 -328
-528 -439 -30 -18 -30 -18 -15 1 8 11 35 43 60 70 25 28 71 82 103 121 48 60
88 92 249 203 105 72 193 129 196 126 3 -3 -26 -40 -65 -82z m1070 -15 c5 -20
16 -135 31 -325 3 -29 1 -55 -3 -58 -17 -10 -448 262 -435 274 5 5 379 129
395 130 4 1 9 -9 12 -21z m-427 -176 c69 -45 328 -190 397 -223 26 -13 47 -26
47 -30 0 -28 -326 -213 -554 -313 -68 -30 -70 -31 -63 -12 33 86 87 425 87
548 0 81 4 83 86 30z m-180 -129 c-7 -129 -31 -264 -67 -385 l-20 -69 -29 21
c-102 73 -295 351 -278 401 4 11 367 157 392 159 5 0 6 -53 2 -127z m-434
-156 c59 -115 126 -204 219 -291 42 -40 68 -71 62 -77 -23 -23 -661 -245 -682
-237 -5 2 8 32 30 68 80 130 247 479 292 613 12 35 33 15 79 -76z m-202 16 c0
-16 -151 -293 -248 -456 -122 -205 -118 -203 -163 -65 -20 60 -24 93 -24 188
0 76 5 123 13 138 8 13 41 36 75 52 34 16 121 56 192 89 125 58 155 69 155 54z
m1280 -96 c0 -131 -41 -552 -56 -566 -7 -7 -141 38 -239 81 -129 57 -326 171
-314 182 2 2 29 16 59 31 149 75 426 244 505 309 17 14 33 25 38 26 4 0 7 -28
7 -63z m-1837 -254 c-6 -112 8 -186 58 -292 16 -36 26 -67 22 -71 -4 -4 -33
-14 -63 -22 -30 -9 -188 -54 -351 -102 -163 -47 -302 -86 -309 -86 -30 0 26
141 101 252 53 79 186 212 259 260 63 41 272 158 282 158 4 0 5 -44 1 -97z
m1377 -214 c88 -37 239 -89 328 -114 34 -10 62 -21 62 -25 0 -19 -862 -372
-874 -359 -2 2 32 76 75 164 65 134 128 281 179 418 l10 28 72 -40 c40 -22
107 -54 148 -72z m-346 49 c-29 -93 -292 -608 -311 -608 -10 0 -52 25 -132 79
-89 59 -314 267 -308 284 1 5 70 29 152 52 152 43 434 143 535 189 69 31 73
31 64 4z m701 -390 c-33 -129 -101 -358 -138 -463 -9 -27 -21 -41 -34 -43 -58
-9 -510 123 -657 191 l-69 32 224 100 c123 55 332 154 464 220 132 66 241 117
243 113 2 -4 -13 -71 -33 -150z m-1651 90 c-10 -16 -139 -199 -260 -368 -49
-69 -107 -154 -129 -188 -22 -34 -44 -62 -49 -62 -17 0 -172 165 -211 225 -42
64 -85 170 -85 210 0 22 8 25 118 51 64 14 225 53 357 84 270 65 269 65 259
48z m197 -122 c54 -52 146 -126 205 -165 l107 -71 -34 -14 c-50 -20 -201 -74
-509 -181 -151 -53 -290 -101 -307 -108 -25 -8 -36 -8 -45 1 -9 9 -3 24 25 65
51 73 446 565 456 566 2 1 48 -41 102 -93z m344 -353 c-8 -16 -34 -58 -57 -96
-119 -187 -220 -351 -225 -363 -3 -8 -11 -14 -18 -14 -30 0 -345 124 -433 170
-159 84 -160 78 35 130 93 24 287 79 433 121 146 43 268 78 273 78 4 1 1 -11
-8 -26z m237 1 c169 -62 399 -116 603 -145 l90 -12 -100 -34 c-169 -57 -1012
-303 -1039 -303 -14 0 -26 2 -26 5 0 3 29 40 63 83 84 101 199 258 262 355 28
42 55 77 62 77 6 0 45 -12 85 -26z m698 -199 c0 -9 -130 -366 -152 -418 -19
-45 -22 -47 -52 -42 -17 3 -112 17 -211 31 -184 26 -616 102 -623 109 -5 5 37
16 203 54 315 73 479 125 687 216 118 51 148 61 148 50z"/>
</g>
</svg>
