<?xml version="1.0" standalone="no"?>
<!DOCTYPE svg PUBLIC "-//W3C//DTD SVG 20010904//EN"
 "http://www.w3.org/TR/2001/REC-SVG-20010904/DTD/svg10.dtd">
<svg version="1.0" xmlns="http://www.w3.org/2000/svg"
 width="64pt" height="64pt" viewBox="0 0 512.000000 512.000000"
 preserveAspectRatio="xMidYMid meet">

<g transform="translate(0.000000,512.000000) scale(0.100000,-0.100000)"
fill="White" stroke="SlateGray" stroke-width="50pt">
<path d="M2510 3756 c-25 -13 -156 -80 -292 -149 -136 -68 -255 -130 -263
-137 -9 -7 -61 -35 -116 -62 -62 -29 -99 -53 -97 -60 4 -12 131 -78 404 -211
65 -32 148 -74 184 -93 l64 -35 36 19 c19 10 52 29 73 40 47 27 67 27 112 2
19 -11 51 -29 70 -40 46 -26 53 -26 121 11 139 75 249 132 401 209 170 85 192
101 171 117 -7 5 -121 63 -253 128 -132 65 -247 125 -257 132 -22 19 -288 153
-302 152 -6 0 -31 -11 -56 -23z"/>
<path d="M1616 3212 c-3 -3 -6 -80 -6 -172 0 -151 2 -169 19 -184 24 -22 128
-76 145 -76 7 0 21 -9 31 -20 10 -11 28 -20 40 -20 12 0 90 34 174 75 83 41
156 75 161 75 16 0 22 21 10 35 -7 8 -56 36 -109 61 -172 83 -335 164 -398
199 -34 18 -64 31 -67 27z"/>
<path d="M3395 3155 c-44 -24 -105 -56 -135 -70 -295 -143 -333 -165 -317
-181 2 -3 56 -31 118 -63 63 -32 133 -68 156 -81 l42 -23 58 28 c131 62 159
77 176 92 15 14 17 37 17 180 0 191 7 184 -115 118z"/>
<path d="M1065 2917 c-11 -7 -33 -20 -48 -31 -26 -17 -115 -64 -272 -144 -33
-17 -135 -67 -228 -112 -92 -45 -170 -86 -173 -92 -3 -5 -17 -13 -31 -19 -55
-21 -37 -32 432 -268 187 -94 349 -171 360 -170 11 0 92 37 180 83 l160 82 3
129 c1 73 7 134 13 142 6 7 24 19 40 28 16 8 42 22 58 30 16 9 34 22 41 30 7
8 21 15 31 15 26 0 31 15 11 32 -9 8 -71 42 -137 75 -66 33 -183 92 -259 132
-77 39 -145 71 -150 70 -6 0 -20 -6 -31 -12z"/>
<path d="M3945 2904 c-22 -13 -47 -27 -55 -30 -48 -18 -149 -71 -172 -90 -15
-12 -53 -34 -85 -49 -32 -15 -76 -35 -99 -46 -22 -10 -49 -28 -59 -39 -17 -19
-17 -20 1 -26 11 -3 30 -12 44 -20 14 -8 53 -28 88 -45 l62 -30 0 -138 0 -137
28 -27 c16 -15 86 -57 157 -93 106 -54 134 -64 159 -58 33 7 208 95 235 117
19 17 525 267 539 267 5 0 15 7 22 15 11 13 9 20 -10 40 -13 14 -31 25 -40 25
-10 0 -28 8 -41 18 -13 10 -87 49 -164 86 -77 38 -158 78 -180 89 -165 83
-247 126 -260 137 -22 18 -106 60 -119 59 -6 0 -29 -11 -51 -25z"/>
<path d="M2520 2888 c-36 -22 -120 -66 -450 -235 -300 -154 -320 -165 -320
-174 0 -10 20 -23 115 -74 106 -57 127 -68 300 -153 88 -44 187 -93 220 -110
93 -48 168 -82 180 -82 9 0 410 199 665 330 25 13 70 36 100 51 30 15 56 31
57 36 2 5 -11 16 -29 24 -45 22 -362 185 -473 244 -173 91 -240 125 -250 125
-5 0 -21 9 -35 20 -31 24 -36 24 -80 -2z"/>
<path d="M156 2352 c-4 -3 -6 -114 -6 -247 0 -238 0 -242 23 -262 12 -11 38
-27 57 -36 19 -10 53 -28 75 -42 80 -48 699 -354 707 -349 4 3 8 117 8 253 0
224 -2 249 -17 263 -10 8 -88 50 -173 92 -85 42 -166 82 -180 90 -14 8 -63 33
-110 56 -47 24 -128 64 -180 91 -145 73 -198 97 -204 91z"/>
<path d="M4920 2349 c-8 -5 -73 -37 -145 -72 -148 -73 -291 -144 -320 -160
-11 -6 -93 -48 -182 -93 -90 -45 -169 -87 -178 -94 -13 -11 -15 -52 -15 -266
0 -160 4 -255 10 -259 6 -4 23 0 38 8 15 8 130 67 255 130 126 63 236 122 246
131 10 9 21 16 24 16 10 0 202 94 252 124 l40 23 3 253 c1 140 -1 257 -5 261
-5 4 -15 3 -23 -2z"/>
<path d="M1616 2333 c-3 -3 -6 -115 -6 -248 0 -275 -7 -253 91 -304 30 -16 99
-52 154 -81 244 -129 609 -309 616 -304 5 3 9 117 9 253 0 224 -2 249 -17 263
-10 8 -97 54 -193 102 -96 47 -186 92 -200 100 -109 60 -449 224 -454 219z"/>
<path d="M3354 2265 c-78 -39 -154 -80 -170 -91 -16 -11 -42 -26 -59 -33 -16
-7 -50 -24 -75 -37 -25 -13 -119 -60 -210 -104 -91 -44 -172 -84 -180 -89 -13
-7 -15 -49 -18 -261 -1 -140 1 -257 6 -262 4 -4 39 9 77 29 39 20 113 58 165
85 52 28 212 109 355 181 l260 132 3 254 c1 140 -1 258 -5 261 -5 4 -71 -25
-149 -65z"/>
<path d="M1385 2019 c-27 -15 -60 -28 -72 -28 -12 -1 -25 -6 -28 -12 -4 -5
-28 -20 -53 -32 l-47 -22 -3 -254 c-1 -140 1 -258 6 -263 8 -8 395 181 420
206 14 14 13 16 -10 25 -14 5 -29 14 -32 20 -4 6 -24 18 -44 27 -73 34 -72 30
-72 200 0 84 -3 155 -7 157 -5 2 -30 -8 -58 -24z"/>
<path d="M3682 2018 c-8 -8 -12 -57 -12 -159 l0 -148 -85 -41 c-47 -23 -85
-47 -85 -55 0 -16 402 -217 412 -207 5 5 7 123 6 262 l-3 254 -35 17 c-19 10
-66 33 -105 51 -38 18 -72 34 -75 36 -3 1 -11 -3 -18 -10z"/>
</g>
</svg>
