<?xml version="1.0" standalone="no"?>
<!DOCTYPE svg PUBLIC "-//W3C//DTD SVG 20010904//EN"
 "http://www.w3.org/TR/2001/REC-SVG-20010904/DTD/svg10.dtd">
<svg version="1.0" xmlns="http://www.w3.org/2000/svg"
 width="64pt" height="64pt" viewBox="0 0 512.000000 512.000000"
 preserveAspectRatio="xMidYMid meet">

<g transform="translate(0.000000,512.000000) scale(0.100000,-0.100000)"
fill="#ffffff" stroke="SlateGray" stroke-width="50pt">
<path d="M2550 4863 c-63 -21 -121 -71 -155 -134 -23 -44 -29 -66 -29 -119 -1
-116 8 -126 370 -489 l325 -326 -1068 -5 c-1061 -5 -1068 -5 -1113 -26 -174
-82 -220 -299 -91 -437 14 -16 49 -41 76 -55 l50 -27 480 -5 480 -5 -777 -780
c-535 -537 -783 -793 -798 -823 -46 -93 -31 -198 41 -285 66 -80 189 -115 290
-82 50 16 80 43 421 383 223 222 371 362 377 357 4 -6 14 -64 20 -130 18 -175
84 -392 169 -555 63 -122 117 -209 160 -260 12 -14 51 -61 88 -105 117 -141
289 -276 481 -378 238 -127 531 -201 793 -201 256 0 553 74 783 197 157 83
159 84 311 210 105 87 210 200 317 341 40 52 174 326 197 400 62 208 72 249
84 371 7 71 13 155 13 185 0 109 -27 317 -51 400 -14 47 -37 122 -50 168 -14
45 -40 110 -59 145 -18 34 -53 99 -78 145 -80 152 -206 287 -1034 1113 -763
761 -800 796 -852 812 -66 21 -112 21 -171 0z m915 -1678 c618 -188 956 -816
775 -1441 -19 -64 -53 -148 -82 -203 -57 -105 -186 -272 -245 -316 -21 -16
-40 -31 -43 -34 -25 -28 -112 -86 -191 -128 -106 -56 -259 -105 -383 -123
-231 -34 -489 12 -698 124 -343 182 -569 522 -607 914 -11 112 0 269 25 360 8
28 21 78 30 110 19 71 117 259 164 316 19 23 49 59 65 81 54 69 211 192 318
249 113 60 277 115 377 127 36 4 135 6 220 4 144 -4 164 -7 275 -40z"/>
<path d="M3035 2771 c-274 -45 -489 -236 -571 -506 -28 -93 -25 -287 6 -384
72 -230 240 -396 475 -471 100 -32 279 -32 385 -1 172 52 342 188 422 338 84
158 106 352 59 518 -65 232 -247 416 -477 484 -80 24 -224 34 -299 22z"/>
</g>
</svg>
