<?xml version="1.0" standalone="no"?>
<!DOCTYPE svg PUBLIC "-//W3C//DTD SVG 20010904//EN"
 "http://www.w3.org/TR/2001/REC-SVG-20010904/DTD/svg10.dtd">
<svg version="1.0" xmlns="http://www.w3.org/2000/svg"
 width="64pt" height="64pt" viewBox="0 0 512.000000 512.000000"
 preserveAspectRatio="xMidYMid meet">

<g transform="translate(0.000000,512.000000) scale(0.100000,-0.100000)"
fill="#ffffff" stroke="SlateGray" stroke-width="50pt">
<path d="M580 4919 c-129 -22 -267 -122 -329 -239 -64 -119 -61 -8 -61 -2110
0 -1245 4 -1938 10 -1980 31 -196 193 -358 390 -389 43 -7 706 -11 1980 -11
1625 0 1925 3 1983 15 188 40 336 195 366 385 7 43 11 706 11 1980 0 1625 -3
1925 -15 1983 -38 182 -180 324 -362 362 -58 13 -356 15 -1993 14 -1102 -1
-1949 -5 -1980 -10z m3684 -2224 c38 -8 93 -22 123 -31 l53 -15 0 -215 0 -214
-37 23 c-48 30 -148 70 -233 93 -48 13 -103 18 -210 18 -128 0 -152 -2 -203
-23 -114 -45 -174 -135 -148 -222 16 -52 78 -119 151 -164 31 -19 132 -68 223
-108 217 -97 295 -145 388 -237 117 -116 159 -220 159 -395 0 -181 -46 -302
-157 -412 -99 -99 -244 -161 -453 -193 -96 -15 -346 -12 -458 5 -104 15 -255
56 -303 80 l-29 16 0 224 0 225 58 -39 c158 -107 329 -161 510 -161 163 0 285
50 329 135 21 38 20 122 0 162 -38 72 -149 146 -350 233 -236 101 -319 152
-414 254 -101 108 -143 219 -143 381 0 46 5 108 11 137 47 225 257 398 544
447 33 6 71 13 85 15 60 11 437 -3 504 -19z m-1329 -205 l0 -185 -297 -3 -298
-2 0 -845 0 -845 -230 0 -230 0 0 845 0 845 -295 0 -295 0 0 190 0 190 823 -2
822 -3 0 -185z"/>
</g>
</svg>
